<svg xmlns="http://www.w3.org/2000/svg" viewBox="0 0 750 750"><path d="M621 83h-491c-46 0-84 37-84 84v315c0 46 37 84 84 84h347c5 0 9 2 13 5l90 90c5 5 11 7 18 7 3 0 7-1 10-2 9-4 16-13 16-23v-77c45-1 82-38 82-84V166c0-46-37-83-84-83zM679 481c0 32-26 59-59 59-13 0-24 11-24 24v79h0L507 552c-8-8-19-13-30-13H130c-32 0-59-26-59-59v-315c0-32 26-59 59-59h491c32 0 59 26 59 59v315zM606 204h-461c-7 0-13 6-13 13s6 13 13 13h461c7 0 13-6 13-13s-6-13-13-13zM606 274h-461c-7 0-13 6-13 13s6 13 13 13h461c7 0 13-6 13-13s-6-13-13-13zM606 344h-461c-7 0-13 6-13 13s6 13 13 13h461c7 0 13-6 13-13s-6-13-13-13zM422 419H145c-7 0-13 6-13 13s6 13 13 13H422c7 0 13-6 13-13s-6-13-13-13z"/></svg>
