<svg xmlns="http://www.w3.org/2000/svg" viewBox="0 0 512 512"><path d="M239.786 42.177c-14.688 2.476-29.46 8.71-41.415 17.59-8.454 6.32-19.128 17.59-24.08 25.532-4.44 7.173-57.042 117.925-58.579 123.305-2.476 8.88-.256 23.91 5.124 35.267 3.415 7.172 14.004 17.932 22.372 22.714 4.697 2.732 5.55 3.586 4.697 4.354-.598.598-11.87 8.113-25.02 16.652-13.15 8.624-26.13 17.334-28.862 19.384-12.382 9.563-24.849 25.36-30.912 39.194-5.038 11.699-7.172 21.006-10.247 44.318-7.429 57.297-10.076 79.585-9.478 81.805.342 1.366 1.708 3.074 3.33 4.013 2.647 1.623 4.782 1.708 90.259 1.708 97.26 0 90.173.427 92.734-5.636 1.025-2.476 1.025-3.33 0-5.807-2.39-5.806-1.28-5.635-40.39-5.635h-35.266v-60.799l-2.476-2.476c-3.416-3.416-7.6-3.416-11.357 0l-2.818 2.476-.257 30.4-.256 30.399H60.891l.513-2.818c.256-1.452 2.732-21.006 5.55-43.294 2.818-22.287 5.892-43.464 6.746-47.05 4.611-18.615 15.883-35.779 30.826-47.307 5.977-4.61 62.336-41.414 63.36-41.414.427 0 15.285 6.916 33.047 15.285 17.761 8.368 33.985 15.882 36.12 16.65 7.002 2.306 15.2 3.331 23.653 2.819 12.553-.769 12.553-.769 60.713-23.654 11.016-5.208 21.092-9.905 22.288-10.332 2.049-.768 5.038.94 33.302 19.47 23.739 15.54 32.705 21.86 38.085 26.983 12.808 12.296 21.262 27.154 24.934 44.147.512 2.135 3.16 22.116 5.977 44.403 2.818 22.288 5.38 41.842 5.636 43.294l.512 2.818h-75.998l-.256-30.4-.256-30.399-2.818-2.476c-3.757-3.416-7.941-3.416-11.357 0l-2.476 2.476v60.713l-32.534.256-32.534.257-2.05 2.39c-2.818 3.245-2.818 8.198 0 11.443l2.05 2.391 84.024.256c46.112.086 84.88 0 85.904-.256 3.074-.769 6.148-4.526 6.148-7.514 0-6.832-12.21-98.371-14.26-106.483-5.038-20.665-16.31-39.11-32.534-53.199-3.074-2.732-17.164-12.467-31.339-21.69-14.09-9.221-26.13-17.248-26.813-17.76-.939-.854-.085-1.623 4.27-3.928 6.917-3.672 17.42-14.005 21.604-21.177 6.831-11.7 9.564-25.19 7.087-34.84-1.622-6.234-53.71-116.73-59.261-125.61-4.697-7.6-16.224-19.896-23.995-25.703-20.835-15.37-48.844-21.946-74.973-17.505Zm37.486 18.188c7.6 1.964 19.043 7.173 25.105 11.272 5.978 4.098 15.2 13.235 19.64 19.383 3.074 4.27 23.739 45.77 28.862 58.066 1.452 3.245 1.794 3.416-8.112-3.757-36.12-26.3-80.694-34.925-122.792-23.824-18.53 4.953-39.963 15.712-54.65 27.581-2.05 1.623-3.843 2.733-4.014 2.562-.683-.683 25.361-54.309 29.119-59.774 10.93-16.053 30.911-28.947 50.466-32.704 9.307-1.708 27.496-1.196 36.376 1.195zm-2.39 74.803c10.332 1.537 18.87 3.928 28.862 7.856l7.429 2.988v32.193c0 29.289-.171 32.875-1.708 38.853-5.038 19.64-21.006 35.693-40.134 40.134-7.088 1.707-18.53 1.707-25.447.085-14.345-3.416-28.776-14.602-35.437-27.496-6.148-11.87-6.575-15.114-6.575-51.49v-32.279l6.66-2.647c9.052-3.672 18.957-6.49 27.07-7.685 3.757-.598 7.428-1.195 8.112-1.366 3.928-.769 23.824-.256 31.167.854zm-88.039 86.672c7.002 25.105 25.874 44.232 50.637 51.405 9.735 2.818 28.435 2.818 38.255 0 21.006-6.063 39.024-22.116 47.05-41.842 4.697-11.784 4.868-13.15 5.38-45.257l.513-30.058 7.6 5.722c13.918 10.417 28.179 25.702 39.194 41.841 3.928 5.807 4.782 7.686 5.294 12.04 1.708 14.688-6.575 29.375-20.664 36.719-18.189 9.393-89.234 42.268-93.76 43.378-6.148 1.452-12.467 1.537-18.53.256-3.757-.768-46.709-20.493-89.148-40.902-16.395-7.941-23.568-16.053-26.044-29.374-1.623-8.881-.427-14.09 5.123-22.544 10.162-15.455 23.824-29.801 39.366-41.5l7.258-5.465.512 30.058c.427 25.19.683 30.826 1.964 35.523z"/><circle cx="260" cy="470" r="10"/></svg>
