<svg xmlns="http://www.w3.org/2000/svg" viewBox="0 0 512 512"><path d="M469 119H384c-14 0-26-11-26-26V51a9 9 0 0 0-9-9 9 9 0 0 0-9 9v43c0 24 19 43 43 43h77v333c0 14-11 26-26 26H77c-14 0-26-11-26-26V43c0-14 11-26 26-26h270L429 100a9 9 0 0 0 12 0c3-3 3-9 0-12L356 3a9 9 0 0 0-6-3H77C53 0 34 19 34 43v427C34 493 53 512 77 512h358c24 0 43-19 43-43V128a9 9 0 0 0-9-9zM137 307c0 66 54 119 119 119s119-54 119-119S322 188 256 188 137 241 137 307zM256 205c56 0 102 46 102 102S312 410 256 410s-102-46-102-102S200 205 256 205zM226 349a9 9 0 0 0 4 1 9 9 0 0 0 4-1l60-34c3-2 4-4 4-7s-2-6-4-7l-60-34a9 9 0 0 0-9 0 9 9 0 0 0-4 7v68a9 9 0 0 0 4 7zm13-61 34 19-34 19v-39z"/></svg>
